# xmcd
#
# Track frame offsets: 
#        150
#        12390
#        28434
#        44817
#        63410
#        76953
#        92390
#        112323
#        128209
#        144615
#        161200
#        174624
#        201319
#
# Disc length: 2965 seconds
#
# Revision: 0
# Processed by: cddbd v1.5.2PL0 Copyright (c) Steve Scherf et al.
# Submitted via: ExactAudioCopy v0.99pb3
#
DISCID=c40b930d
DTITLE=Erik Moll - Good To Go
DYEAR=2008
DGENRE=Country
TTITLE0=All It Took
TTITLE1=Where I Am Bound
TTITLE2=Same Old Spot I'm In
TTITLE3=Mystery To Me
TTITLE4=Bad Blues
TTITLE5=Do It All Over
TTITLE6=Beautiful Mistake
TTITLE7=Good To Go
TTITLE8=Rollin' On
TTITLE9=Wonder Girl
TTITLE10=Ready For Someone New
TTITLE11=Waltzin' On The Stars
TTITLE12=Wakin' Up In Waco
EXTD=
EXTT0=
EXTT1=
EXTT2=
EXTT3=
EXTT4=
EXTT5=
EXTT6=
EXTT7=
EXTT8=
EXTT9=
EXTT10=
EXTT11=
EXTT12=
PLAYORDER=
